<?xml version="1.0" standalone="yes"?>
<svg xmlns="http://www.w3.org/2000/svg" viewBox="0 0 324 323">
<g>
  <path style="fill:#efeffb; stroke:none;" d="M0 0L0 323L324 323L324 0L0 0z"/>
</g>
<g>
  <path style="fill:#12191f; stroke:none;" d="M113 88L139 87C139.766 96.382 144.11 110.458 153 115C154.694 106.899 157.316 97.9539 164.09 92.6134C170.862 87.2748 182.336 87.6013 185.347 97.0147C188.084 105.57 181.507 112.287 177.45 119C170.64 130.266 165.152 142.869 163.285 156C158.309 191.004 165.208 228.391 170.576 263C173.2 279.923 174.768 298.252 181.877 313.995C186.745 324.777 203.486 316.838 212 314C233.756 306.75 254.127 295.622 271 279.91C275.545 275.679 284.217 269.332 285.683 263C286.704 258.59 282.797 252.728 280.833 249C275.123 238.158 268.193 228.244 261.505 218C249.559 199.702 239.62 180.218 238.09 158C236.315 132.237 245.569 97.8947 220.996 79.6127C200.043 64.0233 160.803 64.6889 136 67.1705C123.485 68.4227 114.872 75.3221 113 88z"/>
</g>
<g>
  <path style="fill:currentcolor; stroke:none;" d="M112 89L113 90L112 89z"/>
  <path style="fill:currentcolor; stroke:none;" d="M105 105L106 106L105 105z"/>
  <path style="fill:currentcolor; stroke:none;" d="M98 130L99 131L98 130z"/>
  <path style="fill:currentcolor; stroke:none;" d="M95 151L96 152L95 151z"/>
  <path style="fill:currentcolor; stroke:none;" d="M94 162L95 163L94 162z"/>
  <path style="fill:currentcolor; stroke:none;" d="M101 169L102 170L101 169z"/>
  <path style="fill:currentcolor; stroke:none;" d="M109 172L110 173L109 172z"/>
  <path style="fill:currentcolor; stroke:none;" d="M121 193C112.765 199.271 91.3997 198.907 81 200.155C56.155 203.138 34.1651 207.496 11 217C22.9289 267.221 76.0044 306.559 124 317.765C144.388 322.525 163.411 321.17 184 321L172.081 276L162 194L121 193z"/>
  <path style="fill:currentcolor; stroke:none;" d="M253 203L287 262L288 262C296.291 250.425 307.833 236.455 310 222C291.732 212.277 273.945 204.655 253 203z"/>
</g>
<g>
  <path style="fill:#8a3b33; stroke:none;" d="M146 66L146 67L165 67L146 66z"/>
  <path style="fill:#8a3b33; stroke:none;" d="M131 67L131 68L134 68L131 67z"/>
  <path style="fill:#8a3b33; stroke:none;" d="M177 67L177 68L180 68L177 67z"/>
  <path style="fill:#8a3b33; stroke:none;" d="M128 68L129 69L128 68M185.667 68.3333L186.333 68.6667L185.667 68.3333z"/>
  <path style="fill:#8a3b33; stroke:none;" d="M125 69L126 70L125 69M191.667 69.3333L192.333 69.6667L191.667 69.3333z"/>
  <path style="fill:#8a3b33; stroke:none;" d="M123 70L124 71L123 70M197.667 70.3333L198.333 70.6667L197.667 70.3333z"/>
  <path style="fill:#8a3b33; stroke:none;" d="M202 71L203 72L202 71z"/>
  <path style="fill:#8a3b33; stroke:none;" d="M205 72L206 73L205 72z"/>
  <path style="fill:#8a3b33; stroke:none;" d="M210 74L211 75L210 74z"/>
  <path style="fill:#8a3b33; stroke:none;" d="M213 75L214 76L213 75z"/>
  <path style="fill:#8a3b33; stroke:none;" d="M217 77L218 78L217 77z"/>
  <path style="fill:#8a3b33; stroke:none;" d="M114 81L115 82L114 81z"/>
  <path style="fill:#8a3b33; stroke:none;" d="M113 84L114 85L113 84z"/>
  <path style="fill:#8a3b33; stroke:none;" d="M227 86L228 87L227 86M98 132L108 135C105.308 137.603 101.059 138.027 98.6181 140.702C96.7685 142.729 97.6821 145.571 96.9884 148C96.0872 151.155 93.5628 153.593 93.4097 157C92.8297 169.905 109.076 170.659 115.812 178.04C119.1 181.644 119.98 192.445 124.148 193.682C133.141 196.352 156.505 188.524 162 197L163 197C161.428 177.086 160.953 156.956 168.45 138C173.074 126.309 186.015 113.6 185.97 101C185.929 89.7216 173.968 85.7198 165.039 91.287C157.317 96.1018 154.156 106.458 153 115C144.782 108.658 140.356 97.0652 139 87C133.264 87 117.956 84.2996 113.742 88.6034C110.195 92.2265 112.637 98.5183 108.721 102.532C104.924 106.426 96.0502 109.245 94.7515 115.039C93.8177 119.205 98.6053 120.886 99.8989 124.17C100.908 126.731 98.9604 129.693 98 132z"/>
  <path style="fill:#8a3b33; stroke:none;" d="M229 88L230 89L229 88z"/>
  <path style="fill:#8a3b33; stroke:none;" d="M233 96L234 97L233 96z"/>
  <path style="fill:#8a3b33; stroke:none;" d="M234 98L235 99L234 98z"/>
  <path style="fill:#8a3b33; stroke:none;" d="M235 101L236 102L235 101z"/>
  <path style="fill:#8a3b33; stroke:none;" d="M236 105L237 106L236 105z"/>
  <path style="fill:#8a3b33; stroke:none;" d="M237.333 110.667L237.667 111.333L237.333 110.667z"/>
  <path style="fill:#8a3b33; stroke:none;" d="M238 118L238 121L239 121L238 118z"/>
  <path style="fill:#8a3b33; stroke:none;" d="M238 131L238 137L239 137L238 131z"/>
  <path style="fill:#8a3b33; stroke:none;" d="M238.333 160.667L238.667 161.333L238.333 160.667z"/>
  <path style="fill:#8a3b33; stroke:none;" d="M239 167L240 168L239 167z"/>
  <path style="fill:#8a3b33; stroke:none;" d="M240.333 172.667L240.667 173.333L240.333 172.667z"/>
  <path style="fill:#8a3b33; stroke:none;" d="M241 177L242 178L241 177z"/>
  <path style="fill:#8a3b33; stroke:none;" d="M243 183L244 184L243 183z"/>
  <path style="fill:#8a3b33; stroke:none;" d="M244 186L245 187L244 186z"/>
  <path style="fill:#8a3b33; stroke:none;" d="M245 189L246 190L245 189z"/>
  <path style="fill:#8a3b33; stroke:none;" d="M247 194L248 195L247 194z"/>
  <path style="fill:#8a3b33; stroke:none;" d="M250 200L251 201L250 200z"/>
  <path style="fill:#8a3b33; stroke:none;" d="M252 203L253 204L252 203z"/>
  <path style="fill:#8a3b33; stroke:none;" d="M253 205L254 206L253 205z"/>
  <path style="fill:#8a3b33; stroke:none;" d="M163 206L163 211L164 211L163 206M254.333 206.667L254.667 207.333L254.333 206.667z"/>
  <path style="fill:#8a3b33; stroke:none;" d="M256 210L257 211L256 210z"/>
  <path style="fill:#8a3b33; stroke:none;" d="M257 211L258 212L257 211z"/>
  <path style="fill:#8a3b33; stroke:none;" d="M258 213L259 214L258 213z"/>
  <path style="fill:#8a3b33; stroke:none;" d="M164 216L164 223L165 223L164 216M260 216L261 217L260 216z"/>
  <path style="fill:#8a3b33; stroke:none;" d="M261 218L262 219L261 218z"/>
  <path style="fill:#8a3b33; stroke:none;" d="M262 219L263 220L262 219z"/>
  <path style="fill:#8a3b33; stroke:none;" d="M263 220L264 221L263 220z"/>
  <path style="fill:#8a3b33; stroke:none;" d="M264 222L265 223L264 222z"/>
  <path style="fill:#8a3b33; stroke:none;" d="M265 224L266 225L265 224M266 225L267 226L266 225z"/>
  <path style="fill:#8a3b33; stroke:none;" d="M165 226L165 232L166 232L165 226M267 227L268 228L267 227M268 228L269 229L268 228z"/>
  <path style="fill:#8a3b33; stroke:none;" d="M270 231L271 232L270 231z"/>
  <path style="fill:#8a3b33; stroke:none;" d="M272 234L273 235L272 234z"/>
  <path style="fill:#8a3b33; stroke:none;" d="M273.333 235.667L273.667 236.333L273.333 235.667M166 236L166 241L167 241L166 236z"/>
  <path style="fill:#8a3b33; stroke:none;" d="M274 237L275 238L274 237M275 239L276 240L275 239z"/>
  <path style="fill:#8a3b33; stroke:none;" d="M276 240L277 241L276 240z"/>
  <path style="fill:#8a3b33; stroke:none;" d="M277 242L278 243L277 242z"/>
  <path style="fill:#8a3b33; stroke:none;" d="M167 244L167 248L168 248L167 244M278 244L279 245L278 244z"/>
  <path style="fill:#8a3b33; stroke:none;" d="M279 246L280 247L279 246z"/>
  <path style="fill:#8a3b33; stroke:none;" d="M280 248L281 249L280 248M281.333 249.667L281.667 250.333L281.333 249.667z"/>
  <path style="fill:#8a3b33; stroke:none;" d="M168 251L168 255L169 255L168 251M282 251L283 252L282 251z"/>
  <path style="fill:#8a3b33; stroke:none;" d="M283.333 253.667L283.667 254.333L283.333 253.667z"/>
  <path style="fill:#8a3b33; stroke:none;" d="M169 256L169 260L170 260L169 256M284 256L285 257L284 256z"/>
  <path style="fill:#8a3b33; stroke:none;" d="M285.333 258.667L285.667 259.333L285.333 258.667z"/>
  <path style="fill:#8a3b33; stroke:none;" d="M286 261L287 262L286 261z"/>
  <path style="fill:#8a3b33; stroke:none;" d="M170 262L170 266L171 266L170 262z"/>
  <path style="fill:#8a3b33; stroke:none;" d="M284 265L285 266L284 265z"/>
  <path style="fill:#8a3b33; stroke:none;" d="M171 269L171 273L172 273L171 269z"/>
  <path style="fill:#8a3b33; stroke:none;" d="M172 275L172 279L173 279L172 275z"/>
  <path style="fill:#8a3b33; stroke:none;" d="M173 281L173 284L174 284L173 281z"/>
  <path style="fill:#8a3b33; stroke:none;" d="M266 283L267 284L266 283z"/>
  <path style="fill:#8a3b33; stroke:none;" d="M174 286L174 289L175 289L174 286z"/>
  <path style="fill:#8a3b33; stroke:none;" d="M260 288L261 289L260 288z"/>
  <path style="fill:#8a3b33; stroke:none;" d="M175 291L175 294L176 294L175 291z"/>
  <path style="fill:#8a3b33; stroke:none;" d="M253 293L254 294L253 293z"/>
  <path style="fill:#8a3b33; stroke:none;" d="M250 295L251 296L250 295z"/>
  <path style="fill:#8a3b33; stroke:none;" d="M176 297L176 300L177 300L176 297M247 297L248 298L247 297z"/>
  <path style="fill:#8a3b33; stroke:none;" d="M242 300L243 301L242 300z"/>
  <path style="fill:#8a3b33; stroke:none;" d="M177.333 302.667L177.667 303.333L177.333 302.667z"/>
  <path style="fill:#8a3b33; stroke:none;" d="M178 305L179 306L178 305z"/>
  <path style="fill:#8a3b33; stroke:none;" d="M179.333 307.667L179.667 308.333L179.333 307.667z"/>
  <path style="fill:#8a3b33; stroke:none;" d="M226 308L227 309L226 308z"/>
  <path style="fill:#8a3b33; stroke:none;" d="M224 309L225 310L224 309z"/>
  <path style="fill:#8a3b33; stroke:none;" d="M180.333 310.667L180.667 311.333L180.333 310.667z"/>
  <path style="fill:#8a3b33; stroke:none;" d="M219 311L220 312L219 311z"/>
  <path style="fill:#8a3b33; stroke:none;" d="M216 312L217 313L216 312z"/>
  <path style="fill:#8a3b33; stroke:none;" d="M181 313L182 314L181 313M213 313L214 314L213 313z"/>
  <path style="fill:#8a3b33; stroke:none;" d="M210 314L211 315L210 314z"/>
  <path style="fill:#8a3b33; stroke:none;" d="M182 315L183 316L182 315M207 315L208 316L207 315z"/>
  <path style="fill:#8a3b33; stroke:none;" d="M183 317L184 318L183 317M200 317L201 318L200 317z"/>
  <path style="fill:#8a3b33; stroke:none;" d="M195 318L196 319L195 318z"/>
  <path style="fill:#8a3b33; stroke:none;" d="M184 319L185 320L184 319M190 319L191 320L190 319z"/>
</g>
</svg>
